<?xml version="1.0" standalone="no"?>
<!DOCTYPE svg PUBLIC "-//W3C//DTD SVG 20010904//EN"
 "http://www.w3.org/TR/2001/REC-SVG-20010904/DTD/svg10.dtd">
<svg version="1.0" xmlns="http://www.w3.org/2000/svg"
 width="1024.000000pt" height="1024.000000pt" viewBox="0 0 1024.000000 1024.000000"
 preserveAspectRatio="xMidYMid meet">
<metadata>
Created by potrace 1.14, written by Peter Selinger 2001-2017
</metadata>
<g transform="translate(0.000000,1024.000000) scale(0.100000,-0.100000)"
fill="#000000" stroke="none">
<path d="M4490 8575 c-516 -63 -973 -242 -1354 -530 -66 -49 -130 -98 -143
-109 -24 -18 -24 -18 -61 19 -59 59 -106 79 -187 80 -58 0 -78 -4 -116 -27
-56 -33 -94 -86 -121 -170 -30 -88 -30 -265 0 -360 l21 -68 -48 -72 c-173
-266 -307 -581 -391 -923 -18 -71 -34 -132 -36 -134 -2 -2 -34 8 -71 22 -135
52 -356 118 -505 151 -10 2 -29 -5 -43 -16 -19 -15 -25 -29 -25 -58 0 -47 -2
-46 157 -101 136 -48 435 -167 444 -177 3 -4 0 -50 -7 -102 -22 -151 -28 -493
-15 -752 29 -562 39 -663 82 -770 24 -61 24 -61 -3 -47 -34 18 -142 4 -255
-34 l-102 -34 -12 29 c-8 19 -22 31 -43 36 -19 5 -32 16 -35 28 -4 24 -30 54
-47 54 -8 0 -25 18 -39 40 -14 22 -30 40 -35 40 -5 0 -17 14 -25 31 -9 17 -19
28 -22 25 -10 -10 -43 15 -43 33 0 20 -30 51 -48 51 -7 0 -18 15 -26 34 -10
24 -22 35 -45 39 -19 4 -31 13 -31 22 0 30 -30 75 -55 81 -21 5 -25 12 -25 40
0 29 -6 38 -35 55 -19 12 -35 29 -35 39 0 9 -9 29 -21 44 -17 22 -28 26 -70
26 -63 0 -187 -47 -271 -103 -132 -86 -298 -281 -298 -349 0 -60 55 -120 97
-104 9 4 13 -4 13 -27 0 -50 24 -77 69 -77 37 0 39 -2 45 -39 7 -44 14 -51 60
-60 20 -5 32 -14 34 -26 7 -45 27 -78 54 -89 16 -7 37 -28 46 -46 10 -21 27
-37 42 -40 18 -4 26 -13 28 -33 4 -29 35 -57 64 -57 11 0 18 -7 18 -19 0 -34
38 -71 75 -71 25 0 34 -5 39 -22 11 -44 6 -65 -34 -122 -57 -82 -70 -110 -70
-156 0 -39 7 -48 162 -210 94 -99 170 -170 180 -170 10 0 24 11 30 25 6 14 14
25 18 25 4 0 69 -63 145 -140 77 -77 147 -143 157 -146 28 -8 67 22 87 66 l17
39 48 -48 c30 -30 76 -62 120 -83 65 -30 79 -33 166 -33 88 0 101 3 163 33 49
24 79 48 107 84 l40 50 0 -54 c0 -29 7 -74 17 -100 l17 -47 -47 -93 c-59 -117
-97 -263 -100 -380 l-2 -88 -100 0 c-131 0 -544 -27 -715 -46 -746 -83 -973
-222 -574 -353 363 -118 1492 -260 2409 -301 127 -6 379 -17 560 -26 438 -21
1872 -30 2440 -15 1134 28 2088 118 2731 256 236 51 374 112 374 166 0 9 -13
29 -30 42 -65 55 -246 103 -535 142 l-50 7 25 19 c63 50 202 197 253 267 81
113 151 251 197 391 49 145 60 220 36 240 -18 15 -24 14 -181 -22 -289 -67
-580 -50 -881 54 -215 73 -383 177 -539 334 -206 205 -324 434 -455 880 l-32
111 65 124 c162 311 227 619 212 1005 -3 99 -7 184 -8 190 -2 12 346 83 583
118 188 28 200 34 200 89 0 54 -28 68 -137 68 -122 0 -275 -14 -463 -42 -80
-12 -158 -22 -174 -22 l-30 -1 -12 95 c-21 160 -53 298 -109 465 -47 143 -51
161 -37 169 31 17 99 97 136 159 106 179 127 443 48 605 -33 67 -97 127 -154
142 -96 27 -226 -11 -311 -89 l-44 -41 -29 37 c-50 68 -207 224 -304 302 -439
357 -1022 591 -1645 661 -122 13 -456 11 -585 -5z"/>
<path d="M8214 7551 c-25 -11 -64 -58 -64 -77 0 -10 -11 -12 -44 -8 -76 11
-131 -38 -131 -115 0 -52 26 -87 69 -95 25 -5 36 -12 36 -24 0 -29 -65 -156
-100 -195 -50 -58 -18 -43 54 23 41 39 76 84 98 125 l33 65 128 0 c143 0 176
10 202 60 20 38 19 90 -1 119 -23 32 -79 54 -104 41 -16 -9 -22 -6 -34 17 -29
58 -91 85 -142 64z"/>
<path d="M8178 5750 c-224 -38 -385 -151 -457 -322 -24 -57 -26 -75 -26 -193
0 -118 3 -136 27 -193 50 -120 123 -197 257 -272 39 -22 -65 -102 -166 -128
l-68 -17 62 -3 c75 -4 168 19 245 60 l56 30 79 -18 c101 -23 281 -23 378 0
218 52 378 203 421 394 23 102 15 264 -15 344 -64 165 -208 273 -419 314 -79
15 -294 17 -374 4z"/>
</g>
</svg>
