<?xml version="1.0" standalone="no"?>
<!DOCTYPE svg PUBLIC "-//W3C//DTD SVG 20010904//EN"
 "http://www.w3.org/TR/2001/REC-SVG-20010904/DTD/svg10.dtd">
<svg version="1.0" xmlns="http://www.w3.org/2000/svg"
 width="260.000000pt" height="260.000000pt" viewBox="0 0 260.000000 260.000000"
 preserveAspectRatio="xMidYMid meet">
<metadata>
Created by potrace 1.11, written by Peter Selinger 2001-2013
</metadata>
<g transform="translate(0.000000,260.000000) scale(0.100000,-0.100000)"
fill="#000000" stroke="none">
<path d="M664 2338 c-4 -6 -7 -1238 -5 -1830 l1 -217 250 1 250 0 -1 282 c0
154 0 310 1 346 l0 65 426 0 c234 0 429 2 433 5 12 8 8 480 -4 481 -5 1 -199
2 -430 3 l-420 1 -5 110 c-3 61 -4 145 -2 188 l4 77 467 0 467 0 1 245 c1 135
-2 245 -6 246 -55 4 -1424 2 -1427 -3z"/>
</g>
</svg>
